:FULLY-SPECIFIED
:FORCE-ALL-JOINTS-BE-3DOF
:DEGREES
306
root 9.05826 15.6136 -23.4232 15.7121 62.9612 19.7355
lfemur -14.0916 14.1699 -18.6494
ltibia 47.7065 -0 0
lfoot -15.9107 -10.4989 -0.597429
ltoes 20.8252 -0 0
rfemur -44.8521 -3.98933 10.7893
rtibia 54.4991 -0 0
rfoot 8.64493 -18.1991 0.00241157
rtoes 40.0492 -0 0
lowerback 6.56109 -3.76133 -5.05365
upperback 4.25224 -5.14444 -2.86268
thorax 0.93842 -2.58451 0.152918
lowerneck -2.94427 -12.2987 -2.89767
upperneck -0.7098 -16.3511 7.24694
head 1.22463 -8.16241 2.36266
lclavicle -8.3417e-15 1.76434e-14 4.75569e-32
lhumerus -45.7183 -46.0379 108.196
lradius 60.1188 -0 0
lwrist 15.3605 0 0
lhand 15.7313 13.5588 0.000146077
lfingers 7.12502 -0 0
lthumb 40.5372 38.6007 -0.00647938
rclavicle -8.3417e-15 1.76434e-14 4.75569e-32
rhumerus -42.3523 19.9608 -83.5449
rradius 75.0899 -0 0
rwrist 6.85981 0 0
rhand -34.1458 -16.751 0.563437
rfingers 7.12502 -0 0
rthumb -7.31791 -46.5338 0.534054
307
root 9.038 15.6213 -23.3708 15.1868 61.9775 18.9917
lfemur -14.0306 14.565 -18.4577
ltibia 47.4282 -0 0
lfoot -16.0503 -9.29572 -0.603292
ltoes 18.9883 -0 0
rfemur -44.9905 -4.14243 10.2653
rtibia 54.5332 -0 0
rfoot 8.66476 -18.1655 0.00243487
rtoes 39.9181 -0 0
lowerback 6.51627 -3.65087 -4.99051
upperback 4.22871 -4.99568 -2.80216
thorax 0.932554 -2.51073 0.171649
lowerneck -2.98124 -12.2822 -2.70327
upperneck -0.926019 -16.3214 7.24525
head 1.1422 -8.15156 2.33976
lclavicle -9.02048e-15 1.76628e-14 4.80164e-32
lhumerus -45.9059 -46.2723 108.449
lradius 60.1062 -0 0
lwrist 15.3253 0 0
lhand 15.6493 13.5583 0.000147489
lfingers 7.12502 -0 0
lthumb 40.46 38.6239 -0.00654199
rclavicle -9.02048e-15 1.76628e-14 4.80164e-32
rhumerus -40.8514 19.9917 -82.4049
rradius 75.3436 -0 0
rwrist 6.35237 0 0
rhand -34.4201 -17.3218 0.568904
rfingers 7.12502 -0 0
rthumb -7.58262 -47.0945 0.539235
308
root 9.01775 15.6289 -23.3184 14.7043 60.9908 18.2898
lfemur -13.9681 14.9599 -18.2653
ltibia 47.1499 -0 0
lfoot -16.1899 -8.09254 -0.606224
ltoes 17.1514 -0 0
rfemur -45.1276 -4.29679 9.74157
rtibia 54.5673 -0 0
rfoot 8.68459 -18.1318 0.00244652
rtoes 39.7869 -0 0
lowerback 6.47157 -3.54038 -4.92747
upperback 4.20534 -4.84691 -2.74172
thorax 0.926712 -2.43696 0.190371
lowerneck -3.01815 -12.2656 -2.50891
upperneck -1.1422 -16.2917 7.24344
head 1.05977 -8.14076 2.31684
lclavicle -9.69926e-15 1.76822e-14 4.82461e-32
lhumerus -46.0959 -46.5061 108.705
lradius 60.0937 -0 0
lwrist 15.29 0 0
lhand 15.5672 13.5578 0.000148194
lfingers 7.12502 -0 0
lthumb 40.3828 38.6472 -0.0065733
rclavicle -9.69926e-15 1.76822e-14 4.82461e-32
rhumerus -39.3499 19.9945 -81.2643
rradius 75.5973 -0 0
rwrist 5.84493 0 0
rhand -34.6945 -17.8926 0.571637
rfingers 7.12502 -0 0
rthumb -7.84737 -47.6552 0.541826
309
root 8.9975 15.6365 -23.266 14.2604 60.0015 17.6255
lfemur -13.9041 15.3546 -18.072
ltibia 46.8715 -0 0
lfoot -16.3295 -6.88936 -0.606224
ltoes 15.3146 -0 0
rfemur -45.2632 -4.45238 9.21811
rtibia 54.6014 -0 0
rfoot 8.70443 -18.0982 0.00244652
rtoes 39.6558 -0 0
lowerback 6.427 -3.42983 -4.86452
upperback 4.18214 -4.6981 -2.68135
thorax 0.920894 -2.36318 0.209084
lowerneck -3.05499 -12.2489 -2.31456
upperneck -1.35836 -16.262 7.24152
head 0.977332 -8.12998 2.29391
lclavicle -1.0378e-14 1.77015e-14 4.82461e-32
lhumerus -46.2882 -46.7393 108.963
lradius 60.0811 -0 0
lwrist 15.2548 0 0
lhand 15.4851 13.5574 0.000148194
lfingers 7.12502 -0 0
lthumb 40.3057 38.6704 -0.0065733
rclavicle -1.0378e-14 1.77015e-14 4.82461e-32
rhumerus -37.8488 19.9693 -80.1241
rradius 75.851 -0 0
rwrist 5.33749 0 0
rhand -34.969 -18.4634 0.571637
rfingers 7.12502 -0 0
rthumb -8.11213 -48.2158 0.541826
310
root 8.97724 15.6442 -23.2136 13.8517 59.0097 16.9954
lfemur -13.8386 15.7491 -17.878
ltibia 46.5932 -0 0
lfoot -16.4691 -5.68618 -0.603292
ltoes 13.4777 -0 0
rfemur -45.3974 -4.60921 8.69491
rtibia 54.6355 -0 0
rfoot 8.72426 -18.0645 0.00243487
rtoes 39.5246 -0 0
lowerback 6.38256 -3.31923 -4.80166
upperback 4.15909 -4.54927 -2.62106
thorax 0.915101 -2.2894 0.227789
lowerneck -3.09178 -12.232 -2.12024
upperneck -1.57448 -16.2324 7.23948
head 0.894894 -8.11924 2.27097
lclavicle -1.10568e-14 1.77209e-14 4.80164e-32
lhumerus -46.4829 -46.9719 109.223
lradius 60.0686 -0 0
lwrist 15.2195 0 0
lhand 15.403 13.5569 0.000147489
lfingers 7.12502 -0 0
lthumb 40.2285 38.6937 -0.00654199
rclavicle -1.10568e-14 1.77209e-14 4.80164e-32
rhumerus -36.3489 19.9159 -78.9852
rradius 76.1047 -0 0
rwrist 4.83005 0 0
rhand -35.2434 -19.0342 0.568904
rfingers 7.12502 -0 0
rthumb -8.37688 -48.7765 0.539235
311
root 8.95699 15.6518 -23.1612 13.4751 58.0157 16.3962
lfemur -13.7716 16.1433 -17.683
ltibia 46.3149 -0 0
lfoot -16.6087 -4.48302 -0.597429
ltoes 11.6408 -0 0
rfemur -45.5302 -4.76725 8.17196
rtibia 54.6696 -0 0
rfoot 8.74409 -18.0309 0.00241157
rtoes 39.3935 -0 0
lowerback 6.33824 -3.20858 -4.73889
upperback 4.13621 -4.40042 -2.56083
thorax 0.909332 -2.21562 0.246486
lowerneck -3.12851 -12.215 -1.92594
upperneck -1.79057 -16.2027 7.23732
head 0.812454 -8.10853 2.248
lclavicle -1.17356e-14 1.77403e-14 4.75569e-32
lhumerus -46.68 -47.204 109.485
lradius 60.056 -0 0
lwrist 15.1843 0 0
lhand 15.321 13.5564 0.000146077
lfingers 7.12502 -0 0
lthumb 40.1513 38.7169 -0.00647938
rclavicle -1.17356e-14 1.77403e-14 4.75569e-32
rhumerus -34.8511 19.8346 -77.8487
rradius 76.3584 -0 0
rwrist 4.32261 0 0
rhand -35.5177 -19.605 0.563437
rfingers 7.12502 -0 0
rthumb -8.64159 -49.3371 0.534054
312
root 8.93673 15.6594 -23.1088 13.1276 57.0198 15.8251
lfemur -13.7031 16.5373 -17.4872
ltibia 46.0366 -0 0
lfoot -16.748 -3.27988 -0.588638
ltoes 9.80398 -0 0
rfemur -45.6616 -4.92649 7.64926
rtibia 54.7037 -0 0
rfoot 8.76392 -17.9972 0.00237661
rtoes 39.2623 -0 0
lowerback 6.29405 -3.09789 -4.67622
upperback 4.11349 -4.25155 -2.50068
thorax 0.903588 -2.14183 0.265174
lowerneck -3.16517 -12.1979 -1.73166
upperneck -2.00663 -16.173 7.23505
head 0.730012 -8.09785 2.22503
lclavicle -1.24144e-14 1.77597e-14 4.68677e-32
lhumerus -46.8795 -47.4354 109.75
lradius 60.0435 -0 0
lwrist 15.149 0 0
lhand 15.2389 13.5559 0.000143959
lfingers 7.12502 -0 0
lthumb 40.0741 38.7402 -0.00638545
rclavicle -1.24144e-14 1.77597e-14 4.68677e-32
rhumerus -33.3562 19.7254 -76.7156
rradius 76.6122 -0 0
rwrist 3.81517 0 0
rhand -35.792 -20.1757 0.555237
rfingers 7.12502 -0 0
rthumb -8.90624 -49.8978 0.526283
